<mxfile host="www.draw.io" modified="2020-02-13T03:00:34.824Z" agent="Mozilla/5.0 (Windows NT 10.0; Win64; x64) AppleWebKit/537.36 (KHTML, like Gecko) Chrome/70.0.3538.110 Safari/537.36" etag="Wn-059DP3UtzXLkCYl3T" version="12.6.8" type="github">
  <diagram id="_YipPkewyBk34bMuq43o" name="Page-1">
    <mxGraphModel dx="1278" dy="548" grid="1" gridSize="10" guides="1" tooltips="1" connect="1" arrows="1" fold="1" page="1" pageScale="1" pageWidth="1654" pageHeight="2336" math="0" shadow="0">
      <root>
        <mxCell id="0"/>
        <mxCell id="1" parent="0"/>
        <mxCell id="rCLYXN7DCDHgUodaoLz5-3" value="" style="edgeStyle=orthogonalEdgeStyle;rounded=0;orthogonalLoop=1;jettySize=auto;html=1;" parent="1" source="rCLYXN7DCDHgUodaoLz5-1" target="rCLYXN7DCDHgUodaoLz5-2" edge="1">
          <mxGeometry relative="1" as="geometry"/>
        </mxCell>
        <mxCell id="rCLYXN7DCDHgUodaoLz5-1" value="&lt;span style=&quot;color: rgb(102 , 102 , 102) ; background-color: rgb(249 , 249 , 249)&quot;&gt;区县 05&lt;/span&gt;" style="shape=umlActor;verticalLabelPosition=bottom;labelBackgroundColor=#ffffff;verticalAlign=top;html=1;outlineConnect=0;" parent="1" vertex="1">
          <mxGeometry x="80" y="60" width="30" height="60" as="geometry"/>
        </mxCell>
        <mxCell id="rCLYXN7DCDHgUodaoLz5-5" value="" style="edgeStyle=orthogonalEdgeStyle;rounded=0;orthogonalLoop=1;jettySize=auto;html=1;" parent="1" source="rCLYXN7DCDHgUodaoLz5-2" target="rCLYXN7DCDHgUodaoLz5-4" edge="1">
          <mxGeometry relative="1" as="geometry"/>
        </mxCell>
        <mxCell id="rCLYXN7DCDHgUodaoLz5-2" value="&lt;span style=&quot;color: rgb(102 , 102 , 102) ; background-color: rgb(249 , 249 , 249)&quot;&gt;街道乡镇 04&lt;/span&gt;" style="shape=umlActor;verticalLabelPosition=bottom;labelBackgroundColor=#ffffff;verticalAlign=top;html=1;outlineConnect=0;" parent="1" vertex="1">
          <mxGeometry x="80" y="200" width="30" height="60" as="geometry"/>
        </mxCell>
        <mxCell id="rCLYXN7DCDHgUodaoLz5-7" value="" style="edgeStyle=orthogonalEdgeStyle;rounded=0;orthogonalLoop=1;jettySize=auto;html=1;" parent="1" source="rCLYXN7DCDHgUodaoLz5-4" target="rCLYXN7DCDHgUodaoLz5-6" edge="1">
          <mxGeometry relative="1" as="geometry"/>
        </mxCell>
        <mxCell id="rCLYXN7DCDHgUodaoLz5-4" value="社区店 03" style="shape=umlActor;verticalLabelPosition=bottom;labelBackgroundColor=#ffffff;verticalAlign=top;html=1;outlineConnect=0;" parent="1" vertex="1">
          <mxGeometry x="80" y="340" width="30" height="60" as="geometry"/>
        </mxCell>
        <mxCell id="rCLYXN7DCDHgUodaoLz5-9" value="" style="edgeStyle=orthogonalEdgeStyle;rounded=0;orthogonalLoop=1;jettySize=auto;html=1;" parent="1" source="rCLYXN7DCDHgUodaoLz5-6" target="rCLYXN7DCDHgUodaoLz5-8" edge="1">
          <mxGeometry relative="1" as="geometry"/>
        </mxCell>
        <mxCell id="rCLYXN7DCDHgUodaoLz5-6" value="&lt;span style=&quot;color: rgb(102 , 102 , 102) ; background-color: rgb(249 , 249 , 249)&quot;&gt;兼营店 02&lt;/span&gt;" style="shape=umlActor;verticalLabelPosition=bottom;labelBackgroundColor=#ffffff;verticalAlign=top;html=1;outlineConnect=0;" parent="1" vertex="1">
          <mxGeometry x="80" y="480" width="30" height="60" as="geometry"/>
        </mxCell>
        <mxCell id="rCLYXN7DCDHgUodaoLz5-8" value="&lt;span style=&quot;color: rgb(102 , 102 , 102) ; background-color: rgb(242 , 242 , 242)&quot;&gt;会员 01&lt;/span&gt;" style="shape=umlActor;verticalLabelPosition=bottom;labelBackgroundColor=#ffffff;verticalAlign=top;html=1;outlineConnect=0;" parent="1" vertex="1">
          <mxGeometry x="80" y="620" width="30" height="60" as="geometry"/>
        </mxCell>
        <mxCell id="rCLYXN7DCDHgUodaoLz5-15" style="edgeStyle=orthogonalEdgeStyle;rounded=0;orthogonalLoop=1;jettySize=auto;html=1;exitX=1;exitY=0.25;exitDx=0;exitDy=0;entryX=0.5;entryY=0.5;entryDx=0;entryDy=0;entryPerimeter=0;" parent="1" source="rCLYXN7DCDHgUodaoLz5-10" target="rCLYXN7DCDHgUodaoLz5-13" edge="1">
          <mxGeometry relative="1" as="geometry"/>
        </mxCell>
        <mxCell id="rCLYXN7DCDHgUodaoLz5-17" style="edgeStyle=orthogonalEdgeStyle;rounded=0;orthogonalLoop=1;jettySize=auto;html=1;exitX=1;exitY=0.75;exitDx=0;exitDy=0;entryX=0.5;entryY=0.5;entryDx=0;entryDy=0;entryPerimeter=0;" parent="1" source="rCLYXN7DCDHgUodaoLz5-10" target="rCLYXN7DCDHgUodaoLz5-14" edge="1">
          <mxGeometry relative="1" as="geometry">
            <Array as="points">
              <mxPoint x="410" y="155"/>
              <mxPoint x="410" y="200"/>
              <mxPoint x="475" y="200"/>
            </Array>
          </mxGeometry>
        </mxCell>
        <mxCell id="rCLYXN7DCDHgUodaoLz5-10" value="&lt;font style=&quot;font-size: 14px&quot;&gt;订单A&lt;br&gt;01购买&lt;/font&gt;" style="rounded=1;whiteSpace=wrap;html=1;" parent="1" vertex="1">
          <mxGeometry x="200" y="110" width="160" height="60" as="geometry"/>
        </mxCell>
        <mxCell id="rCLYXN7DCDHgUodaoLz5-13" value="&lt;span style=&quot;color: rgb(102 , 102 , 102) ; background-color: rgb(249 , 249 , 249)&quot;&gt;兼营店 02&lt;/span&gt;" style="shape=umlActor;verticalLabelPosition=bottom;labelBackgroundColor=#ffffff;verticalAlign=top;html=1;outlineConnect=0;" parent="1" vertex="1">
          <mxGeometry x="460" y="50" width="30" height="60" as="geometry"/>
        </mxCell>
        <mxCell id="rCLYXN7DCDHgUodaoLz5-14" value="社区店 03" style="shape=umlActor;verticalLabelPosition=bottom;labelBackgroundColor=#ffffff;verticalAlign=top;html=1;outlineConnect=0;" parent="1" vertex="1">
          <mxGeometry x="460" y="170" width="30" height="60" as="geometry"/>
        </mxCell>
        <mxCell id="rCLYXN7DCDHgUodaoLz5-19" value="&lt;font style=&quot;font-size: 18px&quot;&gt;直推佣金&lt;/font&gt;" style="text;html=1;strokeColor=none;fillColor=none;align=center;verticalAlign=middle;whiteSpace=wrap;rounded=0;" parent="1" vertex="1">
          <mxGeometry x="520" y="70" width="80" height="20" as="geometry"/>
        </mxCell>
        <mxCell id="rCLYXN7DCDHgUodaoLz5-20" value="&lt;font style=&quot;font-size: 18px&quot;&gt;间推佣金&lt;/font&gt;" style="text;html=1;strokeColor=none;fillColor=none;align=center;verticalAlign=middle;whiteSpace=wrap;rounded=0;" parent="1" vertex="1">
          <mxGeometry x="520" y="180" width="80" height="20" as="geometry"/>
        </mxCell>
        <mxCell id="rCLYXN7DCDHgUodaoLz5-21" style="edgeStyle=orthogonalEdgeStyle;rounded=0;orthogonalLoop=1;jettySize=auto;html=1;exitX=1;exitY=0.25;exitDx=0;exitDy=0;entryX=0.5;entryY=0.5;entryDx=0;entryDy=0;entryPerimeter=0;" parent="1" source="rCLYXN7DCDHgUodaoLz5-23" target="rCLYXN7DCDHgUodaoLz5-24" edge="1">
          <mxGeometry relative="1" as="geometry"/>
        </mxCell>
        <mxCell id="rCLYXN7DCDHgUodaoLz5-22" style="edgeStyle=orthogonalEdgeStyle;rounded=0;orthogonalLoop=1;jettySize=auto;html=1;exitX=1;exitY=0.75;exitDx=0;exitDy=0;entryX=0.5;entryY=0.5;entryDx=0;entryDy=0;entryPerimeter=0;" parent="1" source="rCLYXN7DCDHgUodaoLz5-23" target="rCLYXN7DCDHgUodaoLz5-25" edge="1">
          <mxGeometry relative="1" as="geometry">
            <Array as="points">
              <mxPoint x="410" y="375"/>
              <mxPoint x="410" y="420"/>
              <mxPoint x="475" y="420"/>
            </Array>
          </mxGeometry>
        </mxCell>
        <mxCell id="rCLYXN7DCDHgUodaoLz5-29" style="edgeStyle=orthogonalEdgeStyle;rounded=0;orthogonalLoop=1;jettySize=auto;html=1;exitX=1;exitY=0.5;exitDx=0;exitDy=0;" parent="1" source="rCLYXN7DCDHgUodaoLz5-23" target="rCLYXN7DCDHgUodaoLz5-28" edge="1">
          <mxGeometry relative="1" as="geometry"/>
        </mxCell>
        <mxCell id="rCLYXN7DCDHgUodaoLz5-30" value="&lt;font style=&quot;font-size: 14px&quot;&gt;&lt;b&gt;科普人是他&lt;/b&gt;&lt;/font&gt;" style="text;html=1;align=center;verticalAlign=middle;resizable=0;points=[];labelBackgroundColor=#ffffff;" parent="rCLYXN7DCDHgUodaoLz5-29" vertex="1" connectable="0">
          <mxGeometry x="0.123" y="-2" relative="1" as="geometry">
            <mxPoint x="68" y="-12" as="offset"/>
          </mxGeometry>
        </mxCell>
        <mxCell id="rCLYXN7DCDHgUodaoLz5-23" value="&lt;font style=&quot;font-size: 14px&quot;&gt;订单B&lt;br&gt;01购买&lt;br&gt;有填写科普人&lt;/font&gt;" style="rounded=1;whiteSpace=wrap;html=1;" parent="1" vertex="1">
          <mxGeometry x="200" y="330" width="160" height="60" as="geometry"/>
        </mxCell>
        <mxCell id="rCLYXN7DCDHgUodaoLz5-24" value="&lt;span style=&quot;color: rgb(102 , 102 , 102) ; background-color: rgb(249 , 249 , 249)&quot;&gt;兼营店 02&lt;/span&gt;" style="shape=umlActor;verticalLabelPosition=bottom;labelBackgroundColor=#ffffff;verticalAlign=top;html=1;outlineConnect=0;" parent="1" vertex="1">
          <mxGeometry x="460" y="270" width="30" height="60" as="geometry"/>
        </mxCell>
        <mxCell id="rCLYXN7DCDHgUodaoLz5-25" value="社区店 03" style="shape=umlActor;verticalLabelPosition=bottom;labelBackgroundColor=#ffffff;verticalAlign=top;html=1;outlineConnect=0;" parent="1" vertex="1">
          <mxGeometry x="460" y="390" width="30" height="60" as="geometry"/>
        </mxCell>
        <mxCell id="rCLYXN7DCDHgUodaoLz5-26" value="&lt;font style=&quot;font-size: 18px&quot;&gt;直推佣金&lt;/font&gt;" style="text;html=1;strokeColor=none;fillColor=none;align=center;verticalAlign=middle;whiteSpace=wrap;rounded=0;" parent="1" vertex="1">
          <mxGeometry x="520" y="290" width="80" height="20" as="geometry"/>
        </mxCell>
        <mxCell id="rCLYXN7DCDHgUodaoLz5-27" value="&lt;font style=&quot;font-size: 18px&quot;&gt;间推佣金&lt;/font&gt;" style="text;html=1;strokeColor=none;fillColor=none;align=center;verticalAlign=middle;whiteSpace=wrap;rounded=0;" parent="1" vertex="1">
          <mxGeometry x="520" y="400" width="80" height="20" as="geometry"/>
        </mxCell>
        <mxCell id="rCLYXN7DCDHgUodaoLz5-28" value="&lt;span style=&quot;color: rgb(102 , 102 , 102) ; background-color: rgb(249 , 249 , 249)&quot;&gt;区县 05&lt;/span&gt;" style="shape=umlActor;verticalLabelPosition=bottom;labelBackgroundColor=#ffffff;verticalAlign=top;html=1;outlineConnect=0;" parent="1" vertex="1">
          <mxGeometry x="630" y="330" width="30" height="60" as="geometry"/>
        </mxCell>
        <mxCell id="rCLYXN7DCDHgUodaoLz5-31" value="&lt;font style=&quot;font-size: 18px&quot;&gt;科普佣金&lt;/font&gt;" style="text;html=1;align=center;verticalAlign=middle;resizable=0;points=[];autosize=1;" parent="1" vertex="1">
          <mxGeometry x="655" y="350" width="90" height="20" as="geometry"/>
        </mxCell>
        <mxCell id="rCLYXN7DCDHgUodaoLz5-34" value="&lt;font style=&quot;font-size: 14px&quot;&gt;复购有折扣&lt;/font&gt;" style="text;html=1;strokeColor=none;fillColor=none;align=center;verticalAlign=middle;whiteSpace=wrap;rounded=0;" parent="1" vertex="1">
          <mxGeometry x="240" y="300" width="80" height="20" as="geometry"/>
        </mxCell>
        <mxCell id="rCLYXN7DCDHgUodaoLz5-37" value="&lt;span style=&quot;color: rgb(102 , 102 , 102) ; background-color: rgb(249 , 249 , 249)&quot;&gt;区县 05&lt;/span&gt;" style="shape=umlActor;verticalLabelPosition=bottom;labelBackgroundColor=#ffffff;verticalAlign=top;html=1;outlineConnect=0;" parent="1" vertex="1">
          <mxGeometry x="210" y="790" width="30" height="60" as="geometry"/>
        </mxCell>
        <mxCell id="rCLYXN7DCDHgUodaoLz5-38" value="&lt;span style=&quot;color: rgb(102 , 102 , 102) ; background-color: rgb(249 , 249 , 249)&quot;&gt;街道乡镇 04&lt;/span&gt;" style="shape=umlActor;verticalLabelPosition=bottom;labelBackgroundColor=#ffffff;verticalAlign=top;html=1;outlineConnect=0;" parent="1" vertex="1">
          <mxGeometry x="210" y="950" width="30" height="60" as="geometry"/>
        </mxCell>
        <mxCell id="rCLYXN7DCDHgUodaoLz5-39" value="社区店 03" style="shape=umlActor;verticalLabelPosition=bottom;labelBackgroundColor=#ffffff;verticalAlign=top;html=1;outlineConnect=0;" parent="1" vertex="1">
          <mxGeometry x="210" y="1110" width="30" height="60" as="geometry"/>
        </mxCell>
        <mxCell id="rCLYXN7DCDHgUodaoLz5-41" value="&lt;span style=&quot;font-size: 18px ; white-space: normal&quot;&gt;下单时填写&lt;/span&gt;&lt;span style=&quot;font-size: 18px ; white-space: normal&quot;&gt;科普人员编号（默认手机号）&lt;/span&gt;" style="shape=process;whiteSpace=wrap;html=1;backgroundOutline=1;" parent="1" vertex="1">
          <mxGeometry x="760" y="330" width="223" height="60" as="geometry"/>
        </mxCell>
        <mxCell id="rCLYXN7DCDHgUodaoLz5-42" value="&lt;font size=&quot;3&quot;&gt;区县，街道，社区具备开店资格，在会员中心提交门店申请，后台进行审核&lt;/font&gt;" style="shape=process;whiteSpace=wrap;html=1;backgroundOutline=1;" parent="1" vertex="1">
          <mxGeometry x="160" y="720" width="710" height="60" as="geometry"/>
        </mxCell>
        <mxCell id="rCLYXN7DCDHgUodaoLz5-45" value="&lt;font style=&quot;font-size: 14px&quot;&gt;设置代理区域在会员的区域代理信息设置&lt;/font&gt;" style="shape=callout;whiteSpace=wrap;html=1;perimeter=calloutPerimeter;" parent="1" vertex="1">
          <mxGeometry x="850" y="820" width="280" height="80" as="geometry"/>
        </mxCell>
        <mxCell id="rCLYXN7DCDHgUodaoLz5-48" value="&lt;ol&gt;&lt;li&gt;&lt;font style=&quot;font-size: 18px&quot;&gt;先选择代理级别（省，市，区，街道）&lt;/font&gt;&lt;/li&gt;&lt;li&gt;&lt;font size=&quot;3&quot;&gt;添加代理区域&lt;/font&gt;&lt;/li&gt;&lt;/ol&gt;" style="text;strokeColor=none;fillColor=none;html=1;whiteSpace=wrap;verticalAlign=middle;overflow=hidden;" parent="1" vertex="1">
          <mxGeometry x="880" y="910" width="240" height="80" as="geometry"/>
        </mxCell>
        <mxCell id="rCLYXN7DCDHgUodaoLz5-49" value="&lt;font size=&quot;3&quot;&gt;佣金设置和升级条件都在分销等级设置&lt;/font&gt;" style="shape=callout;whiteSpace=wrap;html=1;perimeter=calloutPerimeter;" parent="1" vertex="1">
          <mxGeometry x="660" y="50" width="170" height="110" as="geometry"/>
        </mxCell>
        <mxCell id="rCLYXN7DCDHgUodaoLz5-50" value="代理区域：禅城区" style="text;html=1;strokeColor=none;fillColor=none;align=center;verticalAlign=middle;whiteSpace=wrap;rounded=0;" parent="1" vertex="1">
          <mxGeometry x="200" y="880" width="110" height="20" as="geometry"/>
        </mxCell>
        <mxCell id="rCLYXN7DCDHgUodaoLz5-51" value="代理区域：石湾街道" style="text;html=1;strokeColor=none;fillColor=none;align=center;verticalAlign=middle;whiteSpace=wrap;rounded=0;" parent="1" vertex="1">
          <mxGeometry x="200" y="1040" width="110" height="20" as="geometry"/>
        </mxCell>
        <mxCell id="rCLYXN7DCDHgUodaoLz5-52" value="门店位置：广东省佛山市禅城区石湾街道某个旮旯头&lt;font style=&quot;font-size: 18px&quot;&gt;1&lt;/font&gt;号店" style="text;html=1;strokeColor=none;fillColor=none;align=center;verticalAlign=middle;whiteSpace=wrap;rounded=0;" parent="1" vertex="1">
          <mxGeometry x="200" y="900" width="320" height="20" as="geometry"/>
        </mxCell>
        <mxCell id="rCLYXN7DCDHgUodaoLz5-54" value="门店位置：广东省佛山市禅城区石湾街道某个旮旯头&lt;font style=&quot;font-size: 18px&quot;&gt;2&lt;/font&gt;号店" style="text;html=1;strokeColor=none;fillColor=none;align=center;verticalAlign=middle;whiteSpace=wrap;rounded=0;" parent="1" vertex="1">
          <mxGeometry x="200" y="1060" width="320" height="20" as="geometry"/>
        </mxCell>
        <mxCell id="rCLYXN7DCDHgUodaoLz5-55" value="门店位置：广东省佛山市禅城区石湾街道某个旮旯头&lt;font size=&quot;3&quot;&gt;3&lt;/font&gt;号店" style="text;html=1;strokeColor=none;fillColor=none;align=center;verticalAlign=middle;whiteSpace=wrap;rounded=0;" parent="1" vertex="1">
          <mxGeometry x="200" y="1200" width="320" height="20" as="geometry"/>
        </mxCell>
        <mxCell id="rCLYXN7DCDHgUodaoLz5-56" value="&lt;span style=&quot;color: rgb(102 , 102 , 102) ; background-color: rgb(249 , 249 , 249)&quot;&gt;市代 06&lt;/span&gt;" style="shape=umlActor;verticalLabelPosition=bottom;labelBackgroundColor=#ffffff;verticalAlign=top;html=1;outlineConnect=0;" parent="1" vertex="1">
          <mxGeometry x="630" y="790" width="30" height="60" as="geometry"/>
        </mxCell>
        <mxCell id="rCLYXN7DCDHgUodaoLz5-60" value="&lt;font color=&quot;#666666&quot;&gt;&lt;span style=&quot;background-color: rgb(249 , 249 , 249)&quot;&gt;省代 07&lt;/span&gt;&lt;/font&gt;" style="shape=umlActor;verticalLabelPosition=bottom;labelBackgroundColor=#ffffff;verticalAlign=top;html=1;outlineConnect=0;" parent="1" vertex="1">
          <mxGeometry x="630" y="950" width="30" height="60" as="geometry"/>
        </mxCell>
        <mxCell id="rCLYXN7DCDHgUodaoLz5-62" value="代理区域：佛山市" style="text;html=1;strokeColor=none;fillColor=none;align=center;verticalAlign=middle;whiteSpace=wrap;rounded=0;" parent="1" vertex="1">
          <mxGeometry x="595" y="880" width="110" height="20" as="geometry"/>
        </mxCell>
        <mxCell id="rCLYXN7DCDHgUodaoLz5-63" value="代理区域：广东省" style="text;html=1;strokeColor=none;fillColor=none;align=center;verticalAlign=middle;whiteSpace=wrap;rounded=0;" parent="1" vertex="1">
          <mxGeometry x="595" y="1050" width="110" height="20" as="geometry"/>
        </mxCell>
        <mxCell id="rCLYXN7DCDHgUodaoLz5-64" style="edgeStyle=orthogonalEdgeStyle;rounded=0;orthogonalLoop=1;jettySize=auto;html=1;exitX=1;exitY=0.25;exitDx=0;exitDy=0;entryX=0.5;entryY=0.5;entryDx=0;entryDy=0;entryPerimeter=0;" parent="1" source="rCLYXN7DCDHgUodaoLz5-68" target="rCLYXN7DCDHgUodaoLz5-69" edge="1">
          <mxGeometry relative="1" as="geometry"/>
        </mxCell>
        <mxCell id="rCLYXN7DCDHgUodaoLz5-65" style="edgeStyle=orthogonalEdgeStyle;rounded=0;orthogonalLoop=1;jettySize=auto;html=1;exitX=1;exitY=0.75;exitDx=0;exitDy=0;entryX=0.5;entryY=0.5;entryDx=0;entryDy=0;entryPerimeter=0;" parent="1" source="rCLYXN7DCDHgUodaoLz5-68" target="rCLYXN7DCDHgUodaoLz5-70" edge="1">
          <mxGeometry relative="1" as="geometry">
            <Array as="points">
              <mxPoint x="410" y="1365"/>
              <mxPoint x="410" y="1410"/>
              <mxPoint x="475" y="1410"/>
            </Array>
          </mxGeometry>
        </mxCell>
        <mxCell id="rCLYXN7DCDHgUodaoLz5-68" value="&lt;font style=&quot;font-size: 14px&quot;&gt;订单C&lt;br&gt;01购买&lt;br&gt;选择1号店&lt;br&gt;&lt;/font&gt;" style="rounded=1;whiteSpace=wrap;html=1;" parent="1" vertex="1">
          <mxGeometry x="200" y="1320" width="160" height="60" as="geometry"/>
        </mxCell>
        <mxCell id="rCLYXN7DCDHgUodaoLz5-69" value="&lt;span style=&quot;color: rgb(102 , 102 , 102) ; background-color: rgb(249 , 249 , 249)&quot;&gt;区县 05&lt;/span&gt;" style="shape=umlActor;verticalLabelPosition=bottom;labelBackgroundColor=#ffffff;verticalAlign=top;html=1;outlineConnect=0;" parent="1" vertex="1">
          <mxGeometry x="460" y="1260" width="30" height="60" as="geometry"/>
        </mxCell>
        <mxCell id="rCLYXN7DCDHgUodaoLz5-82" value="" style="edgeStyle=orthogonalEdgeStyle;rounded=0;orthogonalLoop=1;jettySize=auto;html=1;" parent="1" source="rCLYXN7DCDHgUodaoLz5-70" target="rCLYXN7DCDHgUodaoLz5-73" edge="1">
          <mxGeometry relative="1" as="geometry"/>
        </mxCell>
        <mxCell id="rCLYXN7DCDHgUodaoLz5-70" value="市代 06" style="shape=umlActor;verticalLabelPosition=bottom;labelBackgroundColor=#ffffff;verticalAlign=top;html=1;outlineConnect=0;" parent="1" vertex="1">
          <mxGeometry x="460" y="1380" width="30" height="60" as="geometry"/>
        </mxCell>
        <mxCell id="rCLYXN7DCDHgUodaoLz5-71" value="&lt;span style=&quot;font-size: 18px&quot;&gt;门店佣金&amp;nbsp; 配送佣金&lt;/span&gt;" style="text;html=1;strokeColor=none;fillColor=none;align=center;verticalAlign=middle;whiteSpace=wrap;rounded=0;" parent="1" vertex="1">
          <mxGeometry x="520" y="1280" width="190" height="20" as="geometry"/>
        </mxCell>
        <mxCell id="rCLYXN7DCDHgUodaoLz5-84" value="" style="edgeStyle=orthogonalEdgeStyle;rounded=0;orthogonalLoop=1;jettySize=auto;html=1;" parent="1" source="rCLYXN7DCDHgUodaoLz5-73" target="rCLYXN7DCDHgUodaoLz5-83" edge="1">
          <mxGeometry relative="1" as="geometry"/>
        </mxCell>
        <mxCell id="rCLYXN7DCDHgUodaoLz5-73" value="&lt;font color=&quot;#666666&quot;&gt;&lt;span style=&quot;background-color: rgb(249 , 249 , 249)&quot;&gt;省代 07&lt;/span&gt;&lt;/font&gt;" style="shape=umlActor;verticalLabelPosition=bottom;labelBackgroundColor=#ffffff;verticalAlign=top;html=1;outlineConnect=0;" parent="1" vertex="1">
          <mxGeometry x="540" y="1380" width="30" height="60" as="geometry"/>
        </mxCell>
        <mxCell id="rCLYXN7DCDHgUodaoLz5-79" value="&lt;span style=&quot;font-size: 18px&quot;&gt;区域佣金&lt;/span&gt;" style="text;html=1;strokeColor=none;fillColor=none;align=center;verticalAlign=middle;whiteSpace=wrap;rounded=0;" parent="1" vertex="1">
          <mxGeometry x="670" y="1400" width="90" height="20" as="geometry"/>
        </mxCell>
        <mxCell id="rCLYXN7DCDHgUodaoLz5-80" value="&lt;font color=&quot;#666666&quot;&gt;&lt;span style=&quot;background-color: rgb(249 , 249 , 249)&quot;&gt;国代 08&lt;/span&gt;&lt;/font&gt;" style="shape=umlActor;verticalLabelPosition=bottom;labelBackgroundColor=#ffffff;verticalAlign=top;html=1;outlineConnect=0;" parent="1" vertex="1">
          <mxGeometry x="625" y="1110" width="30" height="60" as="geometry"/>
        </mxCell>
        <mxCell id="rCLYXN7DCDHgUodaoLz5-83" value="&lt;span style=&quot;color: rgb(102 , 102 , 102) ; background-color: rgb(249 , 249 , 249)&quot;&gt;区县 05&lt;/span&gt;" style="shape=umlActor;verticalLabelPosition=bottom;labelBackgroundColor=#ffffff;verticalAlign=top;html=1;outlineConnect=0;" parent="1" vertex="1">
          <mxGeometry x="620" y="1380" width="30" height="60" as="geometry"/>
        </mxCell>
        <mxCell id="rCLYXN7DCDHgUodaoLz5-87" style="edgeStyle=orthogonalEdgeStyle;rounded=0;orthogonalLoop=1;jettySize=auto;html=1;exitX=1;exitY=0.25;exitDx=0;exitDy=0;entryX=0.5;entryY=0.5;entryDx=0;entryDy=0;entryPerimeter=0;" parent="1" source="rCLYXN7DCDHgUodaoLz5-89" target="rCLYXN7DCDHgUodaoLz5-90" edge="1">
          <mxGeometry relative="1" as="geometry"/>
        </mxCell>
        <mxCell id="rCLYXN7DCDHgUodaoLz5-88" style="edgeStyle=orthogonalEdgeStyle;rounded=0;orthogonalLoop=1;jettySize=auto;html=1;exitX=1;exitY=0.75;exitDx=0;exitDy=0;entryX=0.5;entryY=0.5;entryDx=0;entryDy=0;entryPerimeter=0;" parent="1" source="rCLYXN7DCDHgUodaoLz5-89" target="rCLYXN7DCDHgUodaoLz5-92" edge="1">
          <mxGeometry relative="1" as="geometry">
            <Array as="points">
              <mxPoint x="410" y="1625"/>
              <mxPoint x="410" y="1670"/>
              <mxPoint x="475" y="1670"/>
            </Array>
          </mxGeometry>
        </mxCell>
        <mxCell id="rCLYXN7DCDHgUodaoLz5-89" value="&lt;font style=&quot;font-size: 14px&quot;&gt;订单D&lt;br&gt;01购买&lt;br&gt;选择2号店&lt;br&gt;&lt;/font&gt;" style="rounded=1;whiteSpace=wrap;html=1;" parent="1" vertex="1">
          <mxGeometry x="200" y="1580" width="160" height="60" as="geometry"/>
        </mxCell>
        <mxCell id="rCLYXN7DCDHgUodaoLz5-90" value="&lt;span style=&quot;color: rgb(102 , 102 , 102) ; background-color: rgb(249 , 249 , 249)&quot;&gt;街道 04&lt;/span&gt;" style="shape=umlActor;verticalLabelPosition=bottom;labelBackgroundColor=#ffffff;verticalAlign=top;html=1;outlineConnect=0;" parent="1" vertex="1">
          <mxGeometry x="460" y="1520" width="30" height="60" as="geometry"/>
        </mxCell>
        <mxCell id="rCLYXN7DCDHgUodaoLz5-91" value="" style="edgeStyle=orthogonalEdgeStyle;rounded=0;orthogonalLoop=1;jettySize=auto;html=1;" parent="1" source="rCLYXN7DCDHgUodaoLz5-92" target="rCLYXN7DCDHgUodaoLz5-95" edge="1">
          <mxGeometry relative="1" as="geometry"/>
        </mxCell>
        <mxCell id="rCLYXN7DCDHgUodaoLz5-92" value="市代 06" style="shape=umlActor;verticalLabelPosition=bottom;labelBackgroundColor=#ffffff;verticalAlign=top;html=1;outlineConnect=0;" parent="1" vertex="1">
          <mxGeometry x="460" y="1640" width="30" height="60" as="geometry"/>
        </mxCell>
        <mxCell id="rCLYXN7DCDHgUodaoLz5-93" value="&lt;span style=&quot;font-size: 18px&quot;&gt;门店佣金&amp;nbsp; 配送佣金&lt;/span&gt;" style="text;html=1;strokeColor=none;fillColor=none;align=center;verticalAlign=middle;whiteSpace=wrap;rounded=0;" parent="1" vertex="1">
          <mxGeometry x="510" y="1540" width="190" height="20" as="geometry"/>
        </mxCell>
        <mxCell id="rCLYXN7DCDHgUodaoLz5-94" value="" style="edgeStyle=orthogonalEdgeStyle;rounded=0;orthogonalLoop=1;jettySize=auto;html=1;" parent="1" source="rCLYXN7DCDHgUodaoLz5-95" target="rCLYXN7DCDHgUodaoLz5-97" edge="1">
          <mxGeometry relative="1" as="geometry"/>
        </mxCell>
        <mxCell id="rCLYXN7DCDHgUodaoLz5-95" value="&lt;font color=&quot;#666666&quot;&gt;&lt;span style=&quot;background-color: rgb(249 , 249 , 249)&quot;&gt;省代 07&lt;/span&gt;&lt;/font&gt;" style="shape=umlActor;verticalLabelPosition=bottom;labelBackgroundColor=#ffffff;verticalAlign=top;html=1;outlineConnect=0;" parent="1" vertex="1">
          <mxGeometry x="540" y="1640" width="30" height="60" as="geometry"/>
        </mxCell>
        <mxCell id="rCLYXN7DCDHgUodaoLz5-96" value="&lt;span style=&quot;font-size: 18px&quot;&gt;区域佣金&lt;/span&gt;" style="text;html=1;strokeColor=none;fillColor=none;align=center;verticalAlign=middle;whiteSpace=wrap;rounded=0;" parent="1" vertex="1">
          <mxGeometry x="670" y="1660" width="90" height="20" as="geometry"/>
        </mxCell>
        <mxCell id="rCLYXN7DCDHgUodaoLz5-97" value="&lt;span style=&quot;color: rgb(102 , 102 , 102) ; background-color: rgb(249 , 249 , 249)&quot;&gt;区县 05&lt;/span&gt;" style="shape=umlActor;verticalLabelPosition=bottom;labelBackgroundColor=#ffffff;verticalAlign=top;html=1;outlineConnect=0;" parent="1" vertex="1">
          <mxGeometry x="620" y="1640" width="30" height="60" as="geometry"/>
        </mxCell>
        <mxCell id="rCLYXN7DCDHgUodaoLz5-98" style="edgeStyle=orthogonalEdgeStyle;rounded=0;orthogonalLoop=1;jettySize=auto;html=1;exitX=1;exitY=0.25;exitDx=0;exitDy=0;entryX=0.5;entryY=0.5;entryDx=0;entryDy=0;entryPerimeter=0;" parent="1" source="rCLYXN7DCDHgUodaoLz5-100" target="rCLYXN7DCDHgUodaoLz5-101" edge="1">
          <mxGeometry relative="1" as="geometry"/>
        </mxCell>
        <mxCell id="rCLYXN7DCDHgUodaoLz5-99" style="edgeStyle=orthogonalEdgeStyle;rounded=0;orthogonalLoop=1;jettySize=auto;html=1;exitX=1;exitY=0.75;exitDx=0;exitDy=0;entryX=0.5;entryY=0.5;entryDx=0;entryDy=0;entryPerimeter=0;" parent="1" source="rCLYXN7DCDHgUodaoLz5-100" target="rCLYXN7DCDHgUodaoLz5-103" edge="1">
          <mxGeometry relative="1" as="geometry">
            <Array as="points">
              <mxPoint x="410" y="1935"/>
              <mxPoint x="410" y="1980"/>
              <mxPoint x="475" y="1980"/>
            </Array>
          </mxGeometry>
        </mxCell>
        <mxCell id="rCLYXN7DCDHgUodaoLz5-110" style="edgeStyle=orthogonalEdgeStyle;rounded=0;orthogonalLoop=1;jettySize=auto;html=1;exitX=1;exitY=0.5;exitDx=0;exitDy=0;" parent="1" source="rCLYXN7DCDHgUodaoLz5-100" target="rCLYXN7DCDHgUodaoLz5-109" edge="1">
          <mxGeometry relative="1" as="geometry"/>
        </mxCell>
        <mxCell id="rCLYXN7DCDHgUodaoLz5-100" value="&lt;font style=&quot;font-size: 14px&quot;&gt;订单F&lt;br&gt;01购买&lt;br&gt;选择3号店&lt;br&gt;&lt;/font&gt;" style="rounded=1;whiteSpace=wrap;html=1;" parent="1" vertex="1">
          <mxGeometry x="200" y="1890" width="160" height="60" as="geometry"/>
        </mxCell>
        <mxCell id="rCLYXN7DCDHgUodaoLz5-101" value="&lt;span style=&quot;color: rgb(102 , 102 , 102) ; background-color: rgb(249 , 249 , 249)&quot;&gt;街道 04&lt;/span&gt;" style="shape=umlActor;verticalLabelPosition=bottom;labelBackgroundColor=#ffffff;verticalAlign=top;html=1;outlineConnect=0;" parent="1" vertex="1">
          <mxGeometry x="460" y="1830" width="30" height="60" as="geometry"/>
        </mxCell>
        <mxCell id="rCLYXN7DCDHgUodaoLz5-102" value="" style="edgeStyle=orthogonalEdgeStyle;rounded=0;orthogonalLoop=1;jettySize=auto;html=1;" parent="1" source="rCLYXN7DCDHgUodaoLz5-103" target="rCLYXN7DCDHgUodaoLz5-106" edge="1">
          <mxGeometry relative="1" as="geometry"/>
        </mxCell>
        <mxCell id="rCLYXN7DCDHgUodaoLz5-103" value="市代 06" style="shape=umlActor;verticalLabelPosition=bottom;labelBackgroundColor=#ffffff;verticalAlign=top;html=1;outlineConnect=0;" parent="1" vertex="1">
          <mxGeometry x="460" y="1950" width="30" height="60" as="geometry"/>
        </mxCell>
        <mxCell id="rCLYXN7DCDHgUodaoLz5-104" value="&lt;span style=&quot;font-size: 18px&quot;&gt;门店佣金&lt;/span&gt;" style="text;html=1;strokeColor=none;fillColor=none;align=center;verticalAlign=middle;whiteSpace=wrap;rounded=0;" parent="1" vertex="1">
          <mxGeometry x="510" y="1850" width="90" height="20" as="geometry"/>
        </mxCell>
        <mxCell id="rCLYXN7DCDHgUodaoLz5-105" value="" style="edgeStyle=orthogonalEdgeStyle;rounded=0;orthogonalLoop=1;jettySize=auto;html=1;" parent="1" source="rCLYXN7DCDHgUodaoLz5-106" target="rCLYXN7DCDHgUodaoLz5-108" edge="1">
          <mxGeometry relative="1" as="geometry"/>
        </mxCell>
        <mxCell id="rCLYXN7DCDHgUodaoLz5-106" value="&lt;font color=&quot;#666666&quot;&gt;&lt;span style=&quot;background-color: rgb(249 , 249 , 249)&quot;&gt;省代 07&lt;/span&gt;&lt;/font&gt;" style="shape=umlActor;verticalLabelPosition=bottom;labelBackgroundColor=#ffffff;verticalAlign=top;html=1;outlineConnect=0;" parent="1" vertex="1">
          <mxGeometry x="540" y="1950" width="30" height="60" as="geometry"/>
        </mxCell>
        <mxCell id="rCLYXN7DCDHgUodaoLz5-107" value="&lt;span style=&quot;font-size: 18px&quot;&gt;区域佣金&lt;/span&gt;" style="text;html=1;strokeColor=none;fillColor=none;align=center;verticalAlign=middle;whiteSpace=wrap;rounded=0;" parent="1" vertex="1">
          <mxGeometry x="510" y="2040" width="90" height="20" as="geometry"/>
        </mxCell>
        <mxCell id="rCLYXN7DCDHgUodaoLz5-108" value="&lt;span style=&quot;color: rgb(102 , 102 , 102) ; background-color: rgb(249 , 249 , 249)&quot;&gt;区县 05&lt;/span&gt;" style="shape=umlActor;verticalLabelPosition=bottom;labelBackgroundColor=#ffffff;verticalAlign=top;html=1;outlineConnect=0;" parent="1" vertex="1">
          <mxGeometry x="620" y="1950" width="30" height="60" as="geometry"/>
        </mxCell>
        <mxCell id="rCLYXN7DCDHgUodaoLz5-109" value="&lt;font color=&quot;#666666&quot;&gt;&lt;span style=&quot;background-color: rgb(249 , 249 , 249)&quot;&gt;社区 03&lt;/span&gt;&lt;/font&gt;" style="shape=umlActor;verticalLabelPosition=bottom;labelBackgroundColor=#ffffff;verticalAlign=top;html=1;outlineConnect=0;" parent="1" vertex="1">
          <mxGeometry x="705" y="1890" width="30" height="60" as="geometry"/>
        </mxCell>
        <mxCell id="rCLYXN7DCDHgUodaoLz5-113" value="&lt;span style=&quot;font-size: 18px&quot;&gt;配送佣金&lt;/span&gt;" style="text;html=1;strokeColor=none;fillColor=none;align=center;verticalAlign=middle;whiteSpace=wrap;rounded=0;" parent="1" vertex="1">
          <mxGeometry x="750" y="1910" width="90" height="20" as="geometry"/>
        </mxCell>
        <mxCell id="rCLYXN7DCDHgUodaoLz5-114" value="&lt;font size=&quot;3&quot;&gt;因社区等级没有门店佣金，查找门店所在地的街道代理，如果没街道代理则门店所在地的区代理获得&lt;/font&gt;" style="shape=callout;whiteSpace=wrap;html=1;perimeter=calloutPerimeter;" parent="1" vertex="1">
          <mxGeometry x="400" y="1770" width="390" height="80" as="geometry"/>
        </mxCell>
        <mxCell id="AteODEBrBmXERU6m-dq5-1" value="&lt;font style=&quot;font-size: 18px&quot; color=&quot;#ff3333&quot;&gt;&lt;b style=&quot;background-color: rgb(255 , 255 , 255)&quot;&gt;在商品中设置为保单升级才有&lt;/b&gt;&lt;/font&gt;" style="shape=callout;whiteSpace=wrap;html=1;perimeter=calloutPerimeter;" vertex="1" parent="1">
          <mxGeometry x="660" y="180" width="200" height="100" as="geometry"/>
        </mxCell>
      </root>
    </mxGraphModel>
  </diagram>
</mxfile>
